<?xml version="1.0" standalone="no"?><!DOCTYPE svg PUBLIC "-//W3C//DTD SVG 1.1//EN" "http://www.w3.org/Graphics/SVG/1.1/DTD/svg11.dtd"><svg t="1593681887763" class="icon" viewBox="0 0 1024 1024" version="1.1" xmlns="http://www.w3.org/2000/svg" p-id="1793" xmlns:xlink="http://www.w3.org/1999/xlink" width="32" height="32"><defs><style type="text/css"></style></defs><path d="M274.837333 85.333333h474.325334a85.333333 85.333333 0 0 1 80.96 58.346667L853.333333 213.333333H170.666667l23.210666-69.653333A85.333333 85.333333 0 0 1 274.837333 85.333333z" fill="#FFE7BF" p-id="1794"></path><path d="M806.997333 213.333333l74.176-107.349333a21.333333 21.333333 0 0 1 36.586667 2.496l11.2 22.122667a106.666667 106.666667 0 0 1 5.781333 82.56l-45.952 134.826666L806.997333 213.333333z" fill="#FCD3B0" p-id="1795"></path><path d="M216.874667 213.333333L142.677333 105.984a21.333333 21.333333 0 0 0-36.586666 2.496L94.933333 130.602667a106.666667 106.666667 0 0 0-5.781333 82.56l45.952 134.826666L216.874667 213.333333z" fill="#FFE5AC" p-id="1796"></path><path d="M128 149.333333m170.666667 0l426.666666 0q170.666667 0 170.666667 170.666667l0 426.666667q0 170.666667-170.666667 170.666666l-426.666666 0q-170.666667 0-170.666667-170.666666l0-426.666667q0-170.666667 170.666667-170.666667Z" fill="#FF5C00" p-id="1797"></path><path d="M289.877333 448l-31.530666 44.629333 58.432 33.322667s38.869333 18.282667 20.416 52.458667C319.658667 610.837333 234.666667 681.728 234.666667 681.728L310.954667 725.333333c52.608-104.810667 49.28-90.816 62.570666-128.512 13.568-38.485333 16.448-67.818667-6.570666-88.96-29.717333-27.349333-32.917333-29.866667-77.077334-59.861333z m187.733334-76.608c10.538667-19.84 15.637333-32.725333 15.637333-32.725333L431.722667 320S406.912 407.530667 362.666667 448.362667c0 0 42.794667 26.709333 42.304 25.92a453.034667 453.034667 0 0 0 32.917333-39.850667 1200.853333 1200.853333 0 0 1 28.501333-13.056c-11.328 22.144-29.76 55.338667-48.149333 76.245333l25.92 24.533334s17.642667-18.346667 36.949333-40.490667h22.016v40.832H417.28v32.661333h85.845333v78.314667c-1.088-0.042667-2.176-0.042667-3.242666-0.128-9.472-0.512-24.234667-2.218667-29.994667-12.010667-7.04-11.989333-1.877333-34.026667-1.536-47.488h-59.093333l-2.197334 1.173334s-21.589333 105.024 62.613334 102.677333c78.826667 2.304 124.032-23.701333 145.706666-41.749333l8.618667 34.773333 48.64-21.824-32.853333-87.168-39.530667 13.290667 7.424 29.866666a120.021333 120.021333 0 0 1-34.410667 18.794667v-68.522667h83.712v-32.661333h-83.712v-40.832h84.053334v-32.682667h-149.333334c10.730667-14.122667 19.2-27.093333 21.44-35.370666l-25.984-7.616c111.594667-43.2 173.824-35.797333 173.226667 35.008v186.730666s6.677333 64.213333-61.312 59.52l-36.693333-8.533333-8.618667 37.717333s158.634667 49.002667 171.584-82.901333c12.970667-131.861333-3.221333-215.893333-3.221333-215.893333s-14.336-121.706667-260.8-46.250667z" fill="#FFFFFF" p-id="1798"></path><path d="M330.666667 325.333333a48.021333 48.021333 0 0 1 0 96 48 48 0 0 1 0-96z" fill="#FFE500" p-id="1799"></path></svg>