<?xml version="1.0" standalone="no"?><!DOCTYPE svg PUBLIC "-//W3C//DTD SVG 1.1//EN" "http://www.w3.org/Graphics/SVG/1.1/DTD/svg11.dtd"><svg t="1594988999057" class="icon" viewBox="0 0 1024 1024" version="1.1" xmlns="http://www.w3.org/2000/svg" p-id="2438" xmlns:xlink="http://www.w3.org/1999/xlink" width="32" height="32"><defs><style type="text/css"></style></defs><path d="M8.723418 605.489888a511.932626 511.932626 0 1 0 1006.665129-186.883314 511.932626 511.932626 0 1 0-1006.665129 186.883314Z" fill="#ffffff" p-id="2439" data-spm-anchor-id="a313x.7781069.0.i1" class="selected"></path><path d="M787.743106 478.60892L550.791433 241.657248c-7.678989-7.678989-18.100475-12.249816-29.618959-12.249817-11.518484 0-22.122803 4.75366-29.618959 12.249817L254.601843 478.60892a42.051609 42.051609 0 0 0 59.420751 59.420751l165.281105-165.281105v398.21045a42.051609 42.051609 0 0 0 84.103217 0V372.748566l165.281105 165.281105a42.051609 42.051609 0 0 0 71.670568-29.801792c-0.182833-11.518484-4.936493-21.93997-12.615483-29.618959z" fill="#d81e06" p-id="2440" data-spm-anchor-id="a313x.7781069.0.i0" class=""></path></svg>